<mxfile host="app.diagrams.net" modified="2023-08-07T14:19:56.435Z" agent="Mozilla/5.0 (Windows NT 10.0; Win64; x64) AppleWebKit/537.36 (KHTML, like Gecko) Chrome/115.0.0.0 Safari/537.36" etag="Iyko3H1vcLD-AsGnUvS2" version="21.5.2" type="github">
  <diagram name="Page-1" id="822b0af5-4adb-64df-f703-e8dfc1f81529">
    <mxGraphModel dx="1434" dy="750" grid="1" gridSize="10" guides="1" tooltips="1" connect="1" arrows="1" fold="1" page="1" pageScale="1" pageWidth="1100" pageHeight="850" background="none" math="0" shadow="0">
      <root>
        <mxCell id="0" />
        <mxCell id="1" parent="0" />
        <mxCell id="eRxnyLezfXE1zsq6xe2w-1" value="FortiMail" style="whiteSpace=wrap;html=1;aspect=fixed;" vertex="1" parent="1">
          <mxGeometry x="80" y="425" width="80" height="80" as="geometry" />
        </mxCell>
        <mxCell id="eRxnyLezfXE1zsq6xe2w-2" value="FortiMail" style="whiteSpace=wrap;html=1;aspect=fixed;" vertex="1" parent="1">
          <mxGeometry x="200" y="425" width="80" height="80" as="geometry" />
        </mxCell>
        <mxCell id="eRxnyLezfXE1zsq6xe2w-3" value="FortiMail" style="whiteSpace=wrap;html=1;aspect=fixed;" vertex="1" parent="1">
          <mxGeometry x="320" y="425" width="80" height="80" as="geometry" />
        </mxCell>
        <mxCell id="eRxnyLezfXE1zsq6xe2w-4" value="FortiWeb" style="whiteSpace=wrap;html=1;aspect=fixed;" vertex="1" parent="1">
          <mxGeometry x="560" y="425" width="80" height="80" as="geometry" />
        </mxCell>
        <mxCell id="eRxnyLezfXE1zsq6xe2w-5" value="FortiWeb" style="whiteSpace=wrap;html=1;aspect=fixed;" vertex="1" parent="1">
          <mxGeometry x="680" y="425" width="80" height="80" as="geometry" />
        </mxCell>
        <mxCell id="eRxnyLezfXE1zsq6xe2w-6" value="FortiWeb" style="whiteSpace=wrap;html=1;aspect=fixed;" vertex="1" parent="1">
          <mxGeometry x="800" y="425" width="80" height="80" as="geometry" />
        </mxCell>
        <mxCell id="eRxnyLezfXE1zsq6xe2w-7" value="FortiWeb" style="whiteSpace=wrap;html=1;aspect=fixed;" vertex="1" parent="1">
          <mxGeometry x="920" y="425" width="80" height="80" as="geometry" />
        </mxCell>
        <mxCell id="eRxnyLezfXE1zsq6xe2w-8" value="A10 1040 ADC (1)" style="whiteSpace=wrap;html=1;aspect=fixed;" vertex="1" parent="1">
          <mxGeometry x="390" y="190" width="80" height="80" as="geometry" />
        </mxCell>
        <mxCell id="eRxnyLezfXE1zsq6xe2w-9" value="A10 1040 ADC (2)" style="whiteSpace=wrap;html=1;aspect=fixed;" vertex="1" parent="1">
          <mxGeometry x="550" y="190" width="80" height="80" as="geometry" />
        </mxCell>
        <mxCell id="eRxnyLezfXE1zsq6xe2w-11" value="" style="endArrow=classic;startArrow=classic;html=1;rounded=0;entryX=0;entryY=0.5;entryDx=0;entryDy=0;" edge="1" parent="1" target="eRxnyLezfXE1zsq6xe2w-9">
          <mxGeometry width="50" height="50" relative="1" as="geometry">
            <mxPoint x="470" y="230" as="sourcePoint" />
            <mxPoint x="520" y="180" as="targetPoint" />
          </mxGeometry>
        </mxCell>
        <mxCell id="eRxnyLezfXE1zsq6xe2w-12" value="VIP&amp;nbsp;" style="text;html=1;align=center;verticalAlign=middle;resizable=0;points=[];autosize=1;strokeColor=none;fillColor=none;" vertex="1" parent="1">
          <mxGeometry x="485" y="200" width="50" height="30" as="geometry" />
        </mxCell>
        <mxCell id="eRxnyLezfXE1zsq6xe2w-13" value="178.76.1.5" style="text;html=1;align=center;verticalAlign=middle;resizable=0;points=[];autosize=1;strokeColor=none;fillColor=none;" vertex="1" parent="1">
          <mxGeometry x="470" y="170" width="80" height="30" as="geometry" />
        </mxCell>
        <mxCell id="eRxnyLezfXE1zsq6xe2w-14" value="HA" style="text;html=1;align=center;verticalAlign=middle;resizable=0;points=[];autosize=1;strokeColor=none;fillColor=none;" vertex="1" parent="1">
          <mxGeometry x="490" y="230" width="40" height="30" as="geometry" />
        </mxCell>
        <mxCell id="eRxnyLezfXE1zsq6xe2w-30" value="Mail Server" style="whiteSpace=wrap;html=1;aspect=fixed;" vertex="1" parent="1">
          <mxGeometry x="25" y="695" width="60" height="60" as="geometry" />
        </mxCell>
        <mxCell id="eRxnyLezfXE1zsq6xe2w-31" value="Mail Server" style="whiteSpace=wrap;html=1;aspect=fixed;" vertex="1" parent="1">
          <mxGeometry x="115" y="695" width="60" height="60" as="geometry" />
        </mxCell>
        <mxCell id="eRxnyLezfXE1zsq6xe2w-32" value="Mail Server" style="whiteSpace=wrap;html=1;aspect=fixed;" vertex="1" parent="1">
          <mxGeometry x="205" y="695" width="60" height="60" as="geometry" />
        </mxCell>
        <mxCell id="eRxnyLezfXE1zsq6xe2w-33" value="Mail Server" style="whiteSpace=wrap;html=1;aspect=fixed;" vertex="1" parent="1">
          <mxGeometry x="295" y="695" width="60" height="60" as="geometry" />
        </mxCell>
        <mxCell id="eRxnyLezfXE1zsq6xe2w-34" value="Mail Server" style="whiteSpace=wrap;html=1;aspect=fixed;" vertex="1" parent="1">
          <mxGeometry x="385" y="695" width="60" height="60" as="geometry" />
        </mxCell>
        <mxCell id="eRxnyLezfXE1zsq6xe2w-35" value="Mail Server" style="whiteSpace=wrap;html=1;aspect=fixed;" vertex="1" parent="1">
          <mxGeometry x="475" y="695" width="60" height="60" as="geometry" />
        </mxCell>
        <mxCell id="eRxnyLezfXE1zsq6xe2w-36" value="Mail Server" style="whiteSpace=wrap;html=1;aspect=fixed;" vertex="1" parent="1">
          <mxGeometry x="565" y="695" width="60" height="60" as="geometry" />
        </mxCell>
        <mxCell id="eRxnyLezfXE1zsq6xe2w-37" value="Mail Server" style="whiteSpace=wrap;html=1;aspect=fixed;" vertex="1" parent="1">
          <mxGeometry x="655" y="695" width="60" height="60" as="geometry" />
        </mxCell>
        <mxCell id="eRxnyLezfXE1zsq6xe2w-38" value="Mail Server" style="whiteSpace=wrap;html=1;aspect=fixed;" vertex="1" parent="1">
          <mxGeometry x="745" y="695" width="60" height="60" as="geometry" />
        </mxCell>
        <mxCell id="eRxnyLezfXE1zsq6xe2w-39" value="Mail Server" style="whiteSpace=wrap;html=1;aspect=fixed;" vertex="1" parent="1">
          <mxGeometry x="835" y="695" width="60" height="60" as="geometry" />
        </mxCell>
        <mxCell id="eRxnyLezfXE1zsq6xe2w-40" value="Mail Server" style="whiteSpace=wrap;html=1;aspect=fixed;" vertex="1" parent="1">
          <mxGeometry x="925" y="695" width="60" height="60" as="geometry" />
        </mxCell>
        <mxCell id="eRxnyLezfXE1zsq6xe2w-41" value="Mail Server" style="whiteSpace=wrap;html=1;aspect=fixed;" vertex="1" parent="1">
          <mxGeometry x="1015" y="695" width="60" height="60" as="geometry" />
        </mxCell>
        <mxCell id="eRxnyLezfXE1zsq6xe2w-42" value="&lt;font style=&quot;font-size: 21px;&quot;&gt;&lt;b&gt;.&lt;/b&gt;&lt;/font&gt;" style="text;html=1;align=center;verticalAlign=middle;resizable=0;points=[];autosize=1;strokeColor=none;fillColor=none;" vertex="1" parent="1">
          <mxGeometry x="495" y="170" width="30" height="40" as="geometry" />
        </mxCell>
        <mxCell id="eRxnyLezfXE1zsq6xe2w-43" value="" style="shape=flexArrow;endArrow=classic;html=1;rounded=0;entryX=0.5;entryY=-0.05;entryDx=0;entryDy=0;entryPerimeter=0;" edge="1" parent="1">
          <mxGeometry width="50" height="50" relative="1" as="geometry">
            <mxPoint x="509.5" y="60" as="sourcePoint" />
            <mxPoint x="509.5" y="158" as="targetPoint" />
          </mxGeometry>
        </mxCell>
        <mxCell id="eRxnyLezfXE1zsq6xe2w-48" value="172.16.1.1" style="text;html=1;align=center;verticalAlign=middle;resizable=0;points=[];autosize=1;strokeColor=none;fillColor=none;" vertex="1" parent="1">
          <mxGeometry x="390" y="280" width="80" height="30" as="geometry" />
        </mxCell>
        <mxCell id="eRxnyLezfXE1zsq6xe2w-49" value="172.16.1.2" style="text;html=1;align=center;verticalAlign=middle;resizable=0;points=[];autosize=1;strokeColor=none;fillColor=none;" vertex="1" parent="1">
          <mxGeometry x="555" y="280" width="80" height="30" as="geometry" />
        </mxCell>
        <mxCell id="eRxnyLezfXE1zsq6xe2w-53" value="172.16.1.8" style="text;html=1;align=center;verticalAlign=middle;resizable=0;points=[];autosize=1;strokeColor=none;fillColor=none;" vertex="1" parent="1">
          <mxGeometry x="560" y="510" width="80" height="30" as="geometry" />
        </mxCell>
        <mxCell id="eRxnyLezfXE1zsq6xe2w-54" value="172.16.1.9" style="text;html=1;align=center;verticalAlign=middle;resizable=0;points=[];autosize=1;strokeColor=none;fillColor=none;" vertex="1" parent="1">
          <mxGeometry x="680" y="510" width="80" height="30" as="geometry" />
        </mxCell>
        <mxCell id="eRxnyLezfXE1zsq6xe2w-55" value="172.16.1.10" style="text;html=1;align=center;verticalAlign=middle;resizable=0;points=[];autosize=1;strokeColor=none;fillColor=none;" vertex="1" parent="1">
          <mxGeometry x="795" y="510" width="90" height="30" as="geometry" />
        </mxCell>
        <mxCell id="eRxnyLezfXE1zsq6xe2w-56" value="172.16.1.11" style="text;html=1;align=center;verticalAlign=middle;resizable=0;points=[];autosize=1;strokeColor=none;fillColor=none;" vertex="1" parent="1">
          <mxGeometry x="910" y="510" width="90" height="30" as="geometry" />
        </mxCell>
        <mxCell id="eRxnyLezfXE1zsq6xe2w-61" value="" style="line;strokeWidth=2;html=1;" vertex="1" parent="1">
          <mxGeometry x="90" y="390" width="300" height="10" as="geometry" />
        </mxCell>
        <mxCell id="eRxnyLezfXE1zsq6xe2w-62" value="172.16.1.3" style="text;html=1;align=center;verticalAlign=middle;resizable=0;points=[];autosize=1;strokeColor=none;fillColor=none;" vertex="1" parent="1">
          <mxGeometry x="185" y="360" width="80" height="30" as="geometry" />
        </mxCell>
        <mxCell id="eRxnyLezfXE1zsq6xe2w-63" value="" style="line;strokeWidth=2;html=1;" vertex="1" parent="1">
          <mxGeometry x="565" y="390" width="425" height="10" as="geometry" />
        </mxCell>
        <mxCell id="eRxnyLezfXE1zsq6xe2w-64" value="172.16.1.4" style="text;html=1;align=center;verticalAlign=middle;resizable=0;points=[];autosize=1;strokeColor=none;fillColor=none;" vertex="1" parent="1">
          <mxGeometry x="725" y="360" width="80" height="30" as="geometry" />
        </mxCell>
        <mxCell id="eRxnyLezfXE1zsq6xe2w-65" value="172.16.1.5" style="text;html=1;align=center;verticalAlign=middle;resizable=0;points=[];autosize=1;strokeColor=none;fillColor=none;" vertex="1" parent="1">
          <mxGeometry x="80" y="510" width="80" height="30" as="geometry" />
        </mxCell>
        <mxCell id="eRxnyLezfXE1zsq6xe2w-66" value="172.16.1.6" style="text;html=1;align=center;verticalAlign=middle;resizable=0;points=[];autosize=1;strokeColor=none;fillColor=none;" vertex="1" parent="1">
          <mxGeometry x="200" y="510" width="80" height="30" as="geometry" />
        </mxCell>
        <mxCell id="eRxnyLezfXE1zsq6xe2w-67" value="172.16.1.7" style="text;html=1;align=center;verticalAlign=middle;resizable=0;points=[];autosize=1;strokeColor=none;fillColor=none;" vertex="1" parent="1">
          <mxGeometry x="320" y="510" width="80" height="30" as="geometry" />
        </mxCell>
        <mxCell id="eRxnyLezfXE1zsq6xe2w-69" value="VIP" style="text;html=1;align=center;verticalAlign=middle;resizable=0;points=[];autosize=1;strokeColor=none;fillColor=none;" vertex="1" parent="1">
          <mxGeometry x="160" y="360" width="40" height="30" as="geometry" />
        </mxCell>
        <mxCell id="eRxnyLezfXE1zsq6xe2w-70" value="VIP" style="text;html=1;align=center;verticalAlign=middle;resizable=0;points=[];autosize=1;strokeColor=none;fillColor=none;" vertex="1" parent="1">
          <mxGeometry x="700" y="360" width="40" height="30" as="geometry" />
        </mxCell>
        <mxCell id="eRxnyLezfXE1zsq6xe2w-72" value="" style="endArrow=none;html=1;rounded=0;entryX=0.085;entryY=0.6;entryDx=0;entryDy=0;entryPerimeter=0;exitX=0.5;exitY=0;exitDx=0;exitDy=0;" edge="1" parent="1" source="eRxnyLezfXE1zsq6xe2w-4" target="eRxnyLezfXE1zsq6xe2w-63">
          <mxGeometry width="50" height="50" relative="1" as="geometry">
            <mxPoint x="550" y="440" as="sourcePoint" />
            <mxPoint x="600" y="390" as="targetPoint" />
          </mxGeometry>
        </mxCell>
      </root>
    </mxGraphModel>
  </diagram>
</mxfile>
